NotoSansElymaic-Italic.ufo
<glyph name="aleph-elym" format="2">
  <advance width="1158"/>
  <unicode hex="10FE0"/>
  <note>
ALEPH
</note>
  <outline>
    <contour>
      <point x="875" y="82" type="curve"/>
      <point x="253" y="82" type="line"/>
      <point x="231" y="140"/>
      <point x="217" y="215"/>
      <point x="217" y="274" type="curve" smooth="yes"/>
      <point x="217" y="410"/>
      <point x="282" y="500"/>
      <point x="391" y="500" type="curve" smooth="yes"/>
      <point x="490" y="500"/>
      <point x="545" y="433"/>
      <point x="535" y="315" type="curve" smooth="yes"/>
      <point x="528" y="216" type="line"/>
      <point x="615" y="216" type="line"/>
      <point x="623" y="317" type="line" smooth="yes"/>
      <point x="632" y="430"/>
      <point x="706" y="500"/>
      <point x="807" y="500" type="curve" smooth="yes"/>
      <point x="894" y="500"/>
      <point x="944" y="429"/>
      <point x="944" y="319" type="curve" smooth="yes"/>
      <point x="944" y="257"/>
      <point x="915" y="157"/>
    </contour>
    <contour>
      <point x="942" y="0" type="line"/>
      <point x="990" y="92"/>
      <point x="1039" y="229"/>
      <point x="1039" y="322" type="curve" smooth="yes"/>
      <point x="1039" y="475"/>
      <point x="951" y="580"/>
      <point x="816" y="580" type="curve" smooth="yes"/>
      <point x="713" y="580"/>
      <point x="621" y="534"/>
      <point x="585" y="461" type="curve"/>
      <point x="597" y="456" type="line"/>
      <point x="570" y="532"/>
      <point x="486" y="580"/>
      <point x="391" y="580" type="curve" smooth="yes"/>
      <point x="222" y="580"/>
      <point x="122" y="460"/>
      <point x="122" y="268" type="curve" smooth="yes"/>
      <point x="122" y="188"/>
      <point x="146" y="86"/>
      <point x="185" y="0" type="curve"/>
    </contour>
  </outline>
</glyph>
<glyph name="beth-elym" format="2">
  <advance width="738"/>
  <unicode hex="10FE1"/>
  <note>
BETH
</note>
  <guideline x="-196"/>
  <outline>
    <contour>
      <point x="243" y="570" type="curve"/>
      <point x="148" y="570" type="line"/>
      <point x="145" y="546"/>
      <point x="143" y="526"/>
      <point x="143" y="510" type="curve" smooth="yes"/>
      <point x="143" y="403"/>
      <point x="210" y="335"/>
      <point x="342" y="315" type="curve" smooth="yes"/>
      <point x="370" y="311"/>
      <point x="407" y="307"/>
      <point x="437" y="304" type="curve"/>
      <point x="456" y="371" type="line"/>
      <point x="423" y="374"/>
      <point x="384" y="380"/>
      <point x="349" y="389" type="curve" smooth="yes"/>
      <point x="275" y="408"/>
      <point x="236" y="451"/>
      <point x="236" y="516" type="curve" smooth="yes"/>
      <point x="236" y="531"/>
      <point x="238" y="549"/>
    </contour>
    <contour>
      <point x="626" y="570" type="curve"/>
      <point x="528" y="570" type="line"/>
      <point x="509" y="496"/>
      <point x="470" y="434"/>
      <point x="405" y="367" type="curve" smooth="yes"/>
      <point x="130" y="85" type="line"/>
      <point x="114" y="0" type="line"/>
      <point x="597" y="0" type="line"/>
      <point x="605" y="83" type="line"/>
      <point x="190" y="83" type="line"/>
      <point x="203" y="44" type="line"/>
      <point x="462" y="308" type="line" smooth="yes"/>
      <point x="543" y="390"/>
      <point x="603" y="481"/>
    </contour>
  </outline>
</glyph>
<glyph name="gimel-elym" format="2">
  <advance width="709"/>
  <unicode hex="10FE2"/>
  <note>
Gimmel
</note>
  <outline>
    <contour>
      <point x="611" y="76" type="line"/>
      <point x="536" y="88"/>
      <point x="514" y="144"/>
      <point x="501" y="227" type="curve" smooth="yes"/>
      <point x="475" y="385" type="line" smooth="yes"/>
      <point x="451" y="528"/>
      <point x="369" y="596"/>
      <point x="223" y="577" type="curve"/>
      <point x="217" y="492" type="line"/>
      <point x="345" y="518"/>
      <point x="375" y="444"/>
      <point x="389" y="362" type="curve" smooth="yes"/>
      <point x="419" y="180" type="line" smooth="yes"/>
      <point x="436" y="69"/>
      <point x="494" y="5"/>
      <point x="588" y="-9" type="curve"/>
    </contour>
    <contour>
      <point x="165" y="0" type="line"/>
      <point x="179" y="173"/>
      <point x="240" y="250"/>
      <point x="359" y="250" type="curve" smooth="yes"/>
      <point x="388" y="250"/>
      <point x="419" y="245"/>
      <point x="441" y="236" type="curve"/>
      <point x="447" y="316" type="line"/>
      <point x="407" y="329"/>
      <point x="369" y="335"/>
      <point x="334" y="335" type="curve" smooth="yes"/>
      <point x="182" y="336"/>
      <point x="93" y="226"/>
      <point x="73" y="0" type="curve"/>
    </contour>
  </outline>
</glyph>
<glyph name="daleth-elym" format="2">
  <advance width="662"/>
  <unicode hex="10FE3"/>
  <note>
dalet
</note>
  <guideline x="-202" y="0" angle="85.3216"/>
  <outline>
    <contour>
      <point x="352" y="349" type="line"/>
      <point x="262" y="349" type="line"/>
      <point x="230" y="76" type="line"/>
      <point x="252" y="81"/>
      <point x="285" y="84"/>
      <point x="303" y="84" type="curve" smooth="yes"/>
      <point x="397" y="84"/>
      <point x="452" y="40"/>
      <point x="452" y="-35" type="curve" smooth="yes"/>
      <point x="452" y="-137"/>
      <point x="371" y="-207"/>
      <point x="273" y="-207" type="curve" smooth="yes"/>
      <point x="226" y="-207"/>
      <point x="192" y="-198"/>
      <point x="160" y="-180" type="curve"/>
      <point x="115" y="-258" type="line"/>
      <point x="147" y="-278"/>
      <point x="197" y="-290"/>
      <point x="254" y="-290" type="curve" smooth="yes"/>
      <point x="429" y="-290"/>
      <point x="548" y="-187"/>
      <point x="548" y="-34" type="curve" smooth="yes"/>
      <point x="548" y="87"/>
      <point x="451" y="163"/>
      <point x="306" y="158" type="curve"/>
      <point x="327" y="134" type="line"/>
    </contour>
    <contour>
      <point x="303" y="276" type="curve" smooth="yes"/>
      <point x="451" y="276"/>
      <point x="555" y="423"/>
      <point x="542" y="570" type="curve"/>
      <point x="449" y="570" type="line"/>
      <point x="453" y="461"/>
      <point x="406" y="349"/>
      <point x="302" y="349" type="curve" smooth="yes"/>
      <point x="232" y="349"/>
      <point x="188" y="405"/>
      <point x="188" y="493" type="curve" smooth="yes"/>
      <point x="188" y="515"/>
      <point x="192" y="548"/>
      <point x="198" y="570" type="curve"/>
      <point x="106" y="570" type="line"/>
      <point x="98" y="544"/>
      <point x="94" y="512"/>
      <point x="94" y="488" type="curve" smooth="yes"/>
      <point x="94" y="364"/>
      <point x="181" y="276"/>
    </contour>
  </outline>
</glyph>
<glyph name="he-elym" format="2">
  <advance width="867"/>
  <unicode hex="10FE4"/>
  <note>
he
</note>
  <guideline x="-347" y="0" angle="264.8056"/>
  <guideline x="-347" y="0" angle="264.8056"/>
  <outline>
    <contour>
      <point x="503" y="337" type="curve" smooth="yes"/>
      <point x="503" y="466"/>
      <point x="433" y="580"/>
      <point x="295" y="580" type="curve" smooth="yes"/>
      <point x="199" y="580"/>
      <point x="123" y="505"/>
      <point x="123" y="412" type="curve" smooth="yes"/>
      <point x="123" y="300"/>
      <point x="213" y="230"/>
      <point x="354" y="230" type="curve" smooth="yes"/>
      <point x="629" y="230" type="line"/>
      <point x="636" y="305" type="line"/>
      <point x="359" y="305" type="line" smooth="yes"/>
      <point x="266" y="305"/>
      <point x="208" y="346"/>
      <point x="208" y="412" type="curve" smooth="yes"/>
      <point x="208" y="467"/>
      <point x="243" y="506"/>
      <point x="295" y="506" type="curve" smooth="yes"/>
      <point x="376" y="506"/>
      <point x="417" y="421"/>
      <point x="417" y="337" type="curve" smooth="yes"/>
      <point x="417" y="164"/>
      <point x="313" y="84"/>
      <point x="127" y="73" type="curve"/>
      <point x="127" y="-10" type="line"/>
      <point x="347" y="4"/>
      <point x="503" y="116"/>
    </contour>
    <component base="_part.T" xOffset="356"/>
  </outline>
</glyph>
<glyph name="waw-elym" format="2">
  <advance width="691"/>
  <unicode hex="10FE5"/>
  <note>
WAW
</note>
  <guideline x="-195" y="0" angle="264.8056"/>
  <outline>
    <contour>
      <point x="111" y="0" type="line"/>
      <point x="241" y="0" type="line" smooth="yes"/>
      <point x="480" y="0"/>
      <point x="533" y="97"/>
      <point x="552" y="303" type="curve" smooth="yes"/>
      <point x="568" y="465"/>
      <point x="544" y="571"/>
      <point x="326" y="571" type="curve" smooth="yes"/>
      <point x="178" y="571" type="line"/>
      <point x="171" y="491" type="line"/>
      <point x="319" y="491" type="line" smooth="yes"/>
      <point x="469" y="491"/>
      <point x="476" y="415"/>
      <point x="463" y="303" type="curve" smooth="yes"/>
      <point x="443" y="141"/>
      <point x="415" y="83"/>
      <point x="252" y="83" type="curve" smooth="yes"/>
      <point x="117" y="83" type="line"/>
    </contour>
  </outline>
</glyph>
<glyph name="zayin-elym" format="2">
  <advance width="609"/>
  <unicode hex="10FE6"/>
  <note>
zayin
</note>
  <outline>
    <contour>
      <point x="56" y="16" type="line"/>
      <point x="88" y="1"/>
      <point x="147" y="-10"/>
      <point x="197" y="-10" type="curve" smooth="yes"/>
      <point x="328" y="-10"/>
      <point x="431" y="41"/>
      <point x="431" y="163" type="curve" smooth="yes"/>
      <point x="431" y="208"/>
      <point x="411" y="263"/>
      <point x="398" y="297" type="curve" smooth="yes"/>
      <point x="370" y="373" type="line" smooth="yes"/>
      <point x="345" y="440"/>
      <point x="378" y="494"/>
      <point x="448" y="494" type="curve" smooth="yes"/>
      <point x="456" y="494"/>
      <point x="463" y="494"/>
      <point x="471" y="493" type="curve"/>
      <point x="480" y="578" type="line"/>
      <point x="469" y="579"/>
      <point x="458" y="580"/>
      <point x="450" y="580" type="curve" smooth="yes"/>
      <point x="312" y="580"/>
      <point x="242" y="475"/>
      <point x="289" y="347" type="curve" smooth="yes"/>
      <point x="314" y="280" type="line" smooth="yes"/>
      <point x="326" y="248"/>
      <point x="340" y="200"/>
      <point x="340" y="165" type="curve" smooth="yes"/>
      <point x="340" y="103"/>
      <point x="285" y="71"/>
      <point x="197" y="71" type="curve" smooth="yes"/>
      <point x="159" y="71"/>
      <point x="121" y="80"/>
      <point x="94" y="95" type="curve"/>
    </contour>
  </outline>
</glyph>
<glyph name="heth-elym" format="2">
  <advance width="747"/>
  <unicode hex="10FE7"/>
  <note>
het
</note>
  <guideline x="365" y="0" angle="263.7131"/>
  <outline>
    <contour>
      <point x="343" y="271" type="line"/>
      <point x="436" y="271" type="line" smooth="yes"/>
      <point x="587" y="271"/>
      <point x="658" y="341"/>
      <point x="671" y="505" type="curve" smooth="yes"/>
      <point x="676" y="570" type="line"/>
      <point x="588" y="570" type="line"/>
      <point x="583" y="505" type="line" smooth="yes"/>
      <point x="575" y="395"/>
      <point x="536" y="352"/>
      <point x="445" y="352" type="curve" smooth="yes"/>
      <point x="351" y="352" type="line"/>
    </contour>
    <contour>
      <point x="153" y="-5" type="line"/>
      <point x="285" y="-3"/>
      <point x="343" y="96"/>
      <point x="356" y="236" type="curve" smooth="yes"/>
      <point x="387" y="570" type="line"/>
      <point x="299" y="570" type="line"/>
      <point x="269" y="236" type="line" smooth="yes"/>
      <point x="261" y="144"/>
      <point x="229" y="79"/>
      <point x="161" y="76" type="curve"/>
    </contour>
    <component base="_part.termleft" xOffset="-109"/>
  </outline>
</glyph>
<glyph name="teth-elym" format="2">
  <advance width="869"/>
  <unicode hex="10FE8"/>
  <note>
TETH
</note>
  <outline>
    <contour>
      <point x="145" y="570" type="line"/>
      <point x="138" y="492" type="line"/>
      <point x="411" y="492" type="line"/>
      <point x="418" y="570" type="line"/>
    </contour>
    <contour>
      <point x="781" y="470" type="line"/>
      <point x="512" y="470" type="line"/>
      <point x="505" y="392" type="line"/>
      <point x="773" y="392" type="line"/>
    </contour>
    <contour>
      <point x="240" y="546" type="line"/>
      <point x="188" y="5" type="line"/>
      <point x="279" y="5" type="line"/>
      <point x="329" y="546" type="line"/>
    </contour>
    <contour>
      <point x="689" y="422" type="curve"/>
      <point x="602" y="422" type="line"/>
      <point x="590" y="200"/>
      <point x="606" y="88"/>
      <point x="379" y="88" type="curve" smooth="yes"/>
      <point x="198" y="88" type="line"/>
      <point x="190" y="5" type="line"/>
      <point x="366" y="5" type="line" smooth="yes"/>
      <point x="662" y="5"/>
      <point x="680" y="122"/>
    </contour>
  </outline>
</glyph>
<glyph name="yodh-elym" format="2">
  <advance width="360"/>
  <unicode hex="10FE9"/>
  <note>
YODH
</note>
  <outline>
    <contour>
      <point x="225" y="337" type="line"/>
      <point x="242" y="416"/>
      <point x="249" y="493"/>
      <point x="244" y="570" type="curve"/>
      <point x="150" y="570" type="line"/>
      <point x="155" y="494"/>
      <point x="148" y="420"/>
      <point x="131" y="337" type="curve"/>
    </contour>
  </outline>
</glyph>
<glyph name="kaph-elym" format="2">
  <advance width="718"/>
  <unicode hex="10FEA"/>
  <note>
KAPH
</note>
  <guideline x="138"/>
  <outline>
    <contour>
      <point x="294" y="-210" type="curve" smooth="yes"/>
      <point x="224" y="-210"/>
      <point x="176" y="-179"/>
      <point x="176" y="-116" type="curve" smooth="yes"/>
      <point x="176" y="-103"/>
      <point x="178" y="-83"/>
      <point x="184" y="-65" type="curve"/>
      <point x="90" y="-55" type="line"/>
      <point x="85" y="-76"/>
      <point x="83" y="-99"/>
      <point x="83" y="-111" type="curve" smooth="yes"/>
      <point x="83" y="-216"/>
      <point x="172" y="-290"/>
      <point x="287" y="-290" type="curve" smooth="yes"/>
      <point x="471" y="-290"/>
      <point x="564" y="-149"/>
      <point x="564" y="59" type="curve" smooth="yes"/>
      <point x="564" y="112"/>
      <point x="552" y="219"/>
      <point x="552" y="283" type="curve" smooth="yes"/>
      <point x="552" y="379"/>
      <point x="566" y="478"/>
      <point x="594" y="570" type="curve"/>
      <point x="499" y="570" type="line"/>
      <point x="476" y="488"/>
      <point x="464" y="386"/>
      <point x="464" y="283" type="curve" smooth="yes"/>
      <point x="464" y="232"/>
      <point x="474" y="106"/>
      <point x="474" y="64" type="curve" smooth="yes"/>
      <point x="474" y="-101"/>
      <point x="419" y="-210"/>
    </contour>
    <component base="_part.utop" yxScale="0.08749" xOffset="-38"/>
  </outline>
</glyph>
<glyph name="lamedh-elym" format="2">
  <advance width="521"/>
  <unicode hex="10FEB"/>
  <note>
LAMEDH
</note>
  <outline>
    <contour>
      <point x="152" y="-10" type="line"/>
      <point x="320" y="-10"/>
      <point x="350" y="159"/>
      <point x="363" y="309" type="curve" smooth="yes"/>
      <point x="398" y="720" type="line"/>
      <point x="307" y="720" type="line"/>
      <point x="274" y="328" type="line" smooth="yes"/>
      <point x="265" y="218"/>
      <point x="257" y="72"/>
      <point x="160" y="71" type="curve"/>
    </contour>
    <component base="_part.termleft" xOffset="-110" yOffset="-5"/>
  </outline>
</glyph>
<glyph name="mem-elym" format="2">
  <advance width="704"/>
  <unicode hex="10FEC"/>
  <note>
mem
</note>
  <outline>
    <contour>
      <point x="349" y="322" type="curve"/>
      <point x="349" y="290" type="line"/>
      <point x="423" y="373"/>
      <point x="509" y="458"/>
      <point x="593" y="513" type="curve"/>
      <point x="530" y="578" type="line"/>
      <point x="443" y="510"/>
      <point x="366" y="429"/>
      <point x="303" y="343" type="curve"/>
      <point x="328" y="343" type="line"/>
      <point x="271" y="427"/>
      <point x="234" y="500"/>
      <point x="218" y="570" type="curve"/>
      <point x="119" y="570" type="line"/>
      <point x="139" y="474"/>
      <point x="193" y="373"/>
      <point x="275" y="278" type="curve"/>
      <point x="277" y="319" type="line"/>
      <point x="202" y="228"/>
      <point x="135" y="117"/>
      <point x="95" y="-1" type="curve"/>
      <point x="188" y="-10" type="line"/>
      <point x="211" y="69"/>
      <point x="269" y="187"/>
      <point x="323" y="254" type="curve"/>
      <point x="301" y="254" type="line"/>
      <point x="382" y="152"/>
      <point x="474" y="63"/>
      <point x="559" y="-5" type="curve"/>
      <point x="611" y="75" type="line"/>
      <point x="522" y="134"/>
      <point x="430" y="222"/>
    </contour>
  </outline>
</glyph>
<glyph name="samekh-elym" format="2">
  <advance width="851"/>
  <unicode hex="10FEE"/>
  <note>
SAMEKH
</note>
  <guideline x="804" y="0" angle="264.8056"/>
  <outline>
    <contour>
      <point x="457" y="70" type="curve" smooth="yes"/>
      <point x="391" y="70"/>
      <point x="343" y="100"/>
      <point x="295" y="142" type="curve"/>
      <point x="287" y="62" type="line"/>
      <point x="335" y="16"/>
      <point x="399" y="-10"/>
      <point x="466" y="-10" type="curve" smooth="yes"/>
      <point x="628" y="-10"/>
      <point x="731" y="120"/>
      <point x="731" y="324" type="curve" smooth="yes"/>
      <point x="731" y="477"/>
      <point x="641" y="580"/>
      <point x="506" y="580" type="curve" smooth="yes"/>
      <point x="434" y="580"/>
      <point x="355" y="543"/>
      <point x="291" y="481" type="curve"/>
      <point x="316" y="405" type="line"/>
      <point x="364" y="463"/>
      <point x="432" y="499"/>
      <point x="497" y="499" type="curve" smooth="yes"/>
      <point x="584" y="499"/>
      <point x="636" y="431"/>
      <point x="636" y="320" type="curve" smooth="yes"/>
      <point x="636" y="173"/>
      <point x="562" y="70"/>
    </contour>
    <contour>
      <point x="99" y="-290" type="line"/>
      <point x="271" y="-290"/>
      <point x="296" y="-132"/>
      <point x="310" y="29" type="curve" smooth="yes"/>
      <point x="325" y="194" type="line" smooth="yes"/>
      <point x="329" y="234"/>
      <point x="334" y="286"/>
      <point x="334" y="331" type="curve" smooth="yes"/>
      <point x="334" y="422"/>
      <point x="324" y="506"/>
      <point x="278" y="593" type="curve"/>
      <point x="190" y="555" type="line"/>
      <point x="226" y="494"/>
      <point x="242" y="425"/>
      <point x="242" y="331" type="curve" smooth="yes"/>
      <point x="242" y="287"/>
      <point x="240" y="252"/>
      <point x="235" y="201" type="curve" smooth="yes"/>
      <point x="221" y="48" type="line" smooth="yes"/>
      <point x="212" y="-62"/>
      <point x="204" y="-208"/>
      <point x="107" y="-209" type="curve"/>
    </contour>
    <component base="_part.termleft" xOffset="-164" yOffset="-285"/>
  </outline>
</glyph>
<glyph name="ayin-elym" format="2">
  <advance width="697"/>
  <unicode hex="10FEF"/>
  <note>
AYIN
</note>
  <guideline x="-256" y="0" angle="0"/>
  <guideline x="-255" y="0" angle="66.2277"/>
  <outline>
    <contour>
      <point x="282" y="570" type="curve"/>
      <point x="183" y="570" type="line"/>
      <point x="170" y="528"/>
      <point x="162" y="489"/>
      <point x="162" y="450" type="curve" smooth="yes"/>
      <point x="162" y="333"/>
      <point x="243" y="220"/>
      <point x="400" y="124" type="curve"/>
      <point x="442" y="195" type="line"/>
      <point x="320" y="267"/>
      <point x="254" y="355"/>
      <point x="254" y="446" type="curve" smooth="yes"/>
      <point x="254" y="485"/>
      <point x="266" y="528"/>
    </contour>
    <contour>
      <point x="217" y="71" type="curve" smooth="yes"/>
      <point x="179" y="71"/>
      <point x="141" y="80"/>
      <point x="114" y="95" type="curve"/>
      <point x="76" y="16" type="line"/>
      <point x="108" y="1"/>
      <point x="167" y="-10"/>
      <point x="217" y="-10" type="curve" smooth="yes"/>
      <point x="419" y="-10"/>
      <point x="509" y="145"/>
      <point x="571" y="349" type="curve" smooth="yes"/>
      <point x="584" y="392" type="line" smooth="yes"/>
      <point x="604" y="459"/>
      <point x="621" y="515"/>
      <point x="642" y="570" type="curve"/>
      <point x="549" y="570" type="line"/>
      <point x="533" y="521"/>
      <point x="519" y="474"/>
      <point x="502" y="416" type="curve" smooth="yes"/>
      <point x="489" y="373" type="line" smooth="yes"/>
      <point x="436" y="197"/>
      <point x="375" y="71"/>
    </contour>
  </outline>
</glyph>
<glyph name="pe-elym" format="2">
  <advance width="714"/>
  <unicode hex="10FF0"/>
  <note>
pe
</note>
  <guideline x="-113" y="0" angle="84.9462"/>
  <outline>
    <contour>
      <point x="104" y="-122" type="curve" smooth="yes"/>
      <point x="104" y="-219"/>
      <point x="179" y="-290"/>
      <point x="278" y="-290" type="curve" smooth="yes"/>
      <point x="463" y="-290"/>
      <point x="515" y="-128"/>
      <point x="531" y="37" type="curve" smooth="yes"/>
      <point x="577" y="495" type="line"/>
      <point x="522" y="549"/>
      <point x="444" y="580"/>
      <point x="358" y="580" type="curve" smooth="yes"/>
      <point x="221" y="580"/>
      <point x="142" y="483"/>
      <point x="142" y="392" type="curve" smooth="yes"/>
      <point x="142" y="333"/>
      <point x="168" y="283"/>
      <point x="216" y="249" type="curve"/>
      <point x="278" y="309" type="line"/>
      <point x="252" y="328"/>
      <point x="236" y="359"/>
      <point x="236" y="392" type="curve" smooth="yes"/>
      <point x="236" y="449"/>
      <point x="288" y="500"/>
      <point x="358" y="500" type="curve" smooth="yes"/>
      <point x="408" y="500"/>
      <point x="456" y="482"/>
      <point x="488" y="450" type="curve"/>
      <point x="441" y="39" type="line" smooth="yes"/>
      <point x="428" y="-83"/>
      <point x="401" y="-210"/>
      <point x="286" y="-210" type="curve" smooth="yes"/>
      <point x="233" y="-210"/>
      <point x="194" y="-181"/>
      <point x="194" y="-122" type="curve" smooth="yes"/>
      <point x="194" y="-107"/>
      <point x="196" y="-90"/>
      <point x="200" y="-72" type="curve"/>
      <point x="110" y="-62" type="line"/>
      <point x="106" y="-80"/>
      <point x="104" y="-107"/>
    </contour>
  </outline>
</glyph>
<glyph name="sadhe-elym" format="2">
  <advance width="814"/>
  <unicode hex="10FF1"/>
  <note>
SADHE
</note>
  <outline>
    <contour>
      <point x="253" y="383" type="line"/>
      <point x="247" y="302" type="line"/>
      <point x="483" y="302" type="line"/>
      <point x="490" y="383" type="line"/>
    </contour>
    <contour>
      <point x="442" y="318" type="curve" smooth="yes"/>
      <point x="442" y="180"/>
      <point x="533" y="88"/>
      <point x="670" y="88" type="curve" smooth="yes"/>
      <point x="719" y="88" type="line"/>
      <point x="727" y="170" type="line"/>
      <point x="689" y="170" type="line" smooth="yes"/>
      <point x="597" y="170"/>
      <point x="536" y="229"/>
      <point x="536" y="318" type="curve" smooth="yes"/>
      <point x="536" y="421"/>
      <point x="604" y="489"/>
      <point x="707" y="489" type="curve" smooth="yes"/>
      <point x="754" y="489" type="line"/>
      <point x="761" y="570" type="line"/>
      <point x="716" y="570" type="line" smooth="yes"/>
      <point x="552" y="570"/>
      <point x="442" y="469"/>
    </contour>
    <component base="_part.j" xOffset="-134"/>
  </outline>
</glyph>
<glyph name="qoph-elym" format="2">
  <advance width="591"/>
  <unicode hex="10FF2"/>
  <note>
QOPH
</note>
  <outline>
    <contour>
      <point x="142" y="570" type="line"/>
      <point x="134" y="490" type="line"/>
      <point x="499" y="490" type="line"/>
      <point x="507" y="570" type="line"/>
    </contour>
    <component base="_part.T" xOffset="-4"/>
    <component base="_part.T" xOffset="-18" yOffset="-151"/>
  </outline>
</glyph>
<glyph name="resh-elym" format="2">
  <advance width="739"/>
  <unicode hex="10FF3"/>
  <note>
RESH
</note>
  <guideline x="219" y="0" angle="0"/>
  <guideline x="219" y="0" angle="285.6783"/>
  <outline>
    <contour>
      <point x="595" y="570" type="curve"/>
      <point x="506" y="570" type="line"/>
      <point x="492" y="520"/>
      <point x="485" y="469"/>
      <point x="485" y="429" type="curve" smooth="yes"/>
      <point x="485" y="380"/>
      <point x="496" y="328"/>
      <point x="496" y="291" type="curve" smooth="yes"/>
      <point x="496" y="170"/>
      <point x="455" y="71"/>
      <point x="318" y="71" type="curve" smooth="yes"/>
      <point x="255" y="71"/>
      <point x="192" y="89"/>
      <point x="153" y="123" type="curve"/>
      <point x="107" y="47" type="line"/>
      <point x="147" y="17"/>
      <point x="227" y="-10"/>
      <point x="313" y="-10" type="curve" smooth="yes"/>
      <point x="490" y="-10"/>
      <point x="581" y="103"/>
      <point x="581" y="266" type="curve" smooth="yes"/>
      <point x="581" y="315"/>
      <point x="571" y="391"/>
      <point x="571" y="433" type="curve" smooth="yes"/>
      <point x="571" y="481"/>
      <point x="579" y="521"/>
    </contour>
    <component base="_part.utop" yxScale="0.08749" xOffset="-43"/>
  </outline>
</glyph>
<glyph name="shin-elym" format="2">
  <advance width="1142"/>
  <unicode hex="10FF4"/>
  <note>
shin
</note>
  <guideline x="483" y="0" angle="66.2277"/>
  <outline>
    <contour>
      <point x="678" y="522" type="line"/>
      <point x="596" y="522" type="line"/>
      <point x="536" y="0" type="line"/>
      <point x="624" y="0" type="line"/>
    </contour>
    <contour>
      <point x="752" y="498" type="line"/>
      <point x="760" y="579" type="line"/>
      <point x="300" y="570" type="line"/>
      <point x="292" y="490" type="line"/>
    </contour>
    <component base="_part.angleleft.n" xOffset="447"/>
    <component base="_part.spirale" xOffset="-146"/>
  </outline>
</glyph>
<glyph name="taw-elym" format="2">
  <advance width="907"/>
  <unicode hex="10FF5"/>
  <note>
TAW
</note>
  <guideline x="483" y="0" angle="84.9462"/>
  <outline>
    <contour>
      <point x="747" y="399" type="line"/>
      <point x="755" y="480" type="line"/>
      <point x="300" y="480" type="line"/>
      <point x="292" y="399" type="line"/>
    </contour>
    <component base="_part.spirale" xOffset="-146"/>
    <component base="_part.T" xOffset="396"/>
  </outline>
</glyph>
<glyph name="zayin_yodh-elym" format="2">
  <advance width="786"/>
  <unicode hex="10FF6"/>
  <note>
LIGATURE ZAYIN-YODH
</note>
  <outline>
    <contour>
      <point x="384" y="70" type="curve" smooth="yes"/>
      <point x="277" y="70"/>
      <point x="237" y="177"/>
      <point x="237" y="279" type="curve" smooth="yes"/>
      <point x="237" y="347"/>
      <point x="256" y="479"/>
      <point x="292" y="570" type="curve"/>
      <point x="192" y="570" type="line"/>
      <point x="167" y="492"/>
      <point x="142" y="354"/>
      <point x="142" y="284" type="curve" smooth="yes"/>
      <point x="142" y="123"/>
      <point x="222" y="-10"/>
      <point x="392" y="-10" type="curve" smooth="yes"/>
      <point x="568" y="-10"/>
      <point x="619" y="139"/>
      <point x="577" y="310" type="curve" smooth="yes"/>
      <point x="556" y="378" type="line" smooth="yes"/>
      <point x="538" y="435"/>
      <point x="561" y="486"/>
      <point x="627" y="486" type="curve" smooth="yes"/>
      <point x="633" y="486"/>
      <point x="640" y="485"/>
      <point x="645" y="484" type="curve"/>
      <point x="656" y="570" type="line"/>
      <point x="648" y="572"/>
      <point x="637" y="573"/>
      <point x="628" y="573" type="curve" smooth="yes"/>
      <point x="499" y="573"/>
      <point x="441" y="478"/>
      <point x="479" y="348" type="curve" smooth="yes"/>
      <point x="496" y="290" type="line" smooth="yes"/>
      <point x="524" y="184"/>
      <point x="499" y="70"/>
    </contour>
  </outline>
</glyph>
<glyph name="_droit" format="2">
  <advance width="804"/>
  <outline>
    <contour>
      <point x="278" y="570" type="line"/>
      <point x="187" y="570" type="line"/>
      <point x="135" y="0" type="line"/>
      <point x="225" y="0" type="line"/>
    </contour>
    <contour>
      <point x="669" y="570" type="line"/>
      <point x="578" y="570" type="line"/>
      <point x="526" y="0" type="line"/>
      <point x="616" y="0" type="line"/>
    </contour>
    <contour>
      <point x="254" y="570" type="line"/>
      <point x="246" y="490" type="line"/>
      <point x="611" y="490" type="line"/>
      <point x="619" y="570" type="line"/>
    </contour>
  </outline>
</glyph>
<glyph name="_part.Desc2" format="2">
  <advance width="615"/>
  <outline>
    <contour>
      <point x="133" y="6" type="line"/>
      <point x="161" y="-10"/>
      <point x="216" y="-23"/>
      <point x="259" y="-23" type="curve" smooth="yes"/>
      <point x="416" y="-23"/>
      <point x="452" y="77"/>
      <point x="452" y="227" type="curve" smooth="yes"/>
      <point x="452" y="514" type="line"/>
      <point x="362" y="514" type="line"/>
      <point x="362" y="221" type="line" smooth="yes"/>
      <point x="362" y="118"/>
      <point x="342" y="57"/>
      <point x="259" y="57" type="curve" smooth="yes"/>
      <point x="232" y="57"/>
      <point x="193" y="69"/>
      <point x="168" y="84" type="curve"/>
    </contour>
  </outline>
</glyph>
<glyph name="_part.J" format="2">
  <advance width="848"/>
  <outline>
    <contour>
      <point x="657" y="570" type="line"/>
      <point x="566" y="570" type="line"/>
      <point x="523" y="54" type="line" smooth="yes"/>
      <point x="512" y="-84"/>
      <point x="481" y="-210"/>
      <point x="361" y="-210" type="curve" smooth="yes"/>
      <point x="308" y="-210"/>
      <point x="269" y="-181"/>
      <point x="269" y="-122" type="curve" smooth="yes"/>
      <point x="269" y="-107"/>
      <point x="271" y="-90"/>
      <point x="275" y="-72" type="curve"/>
      <point x="185" y="-62" type="line"/>
      <point x="181" y="-80"/>
      <point x="179" y="-107"/>
      <point x="179" y="-122" type="curve" smooth="yes"/>
      <point x="179" y="-219"/>
      <point x="254" y="-290"/>
      <point x="353" y="-290" type="curve" smooth="yes"/>
      <point x="544" y="-290"/>
      <point x="599" y="-128"/>
      <point x="614" y="54" type="curve" smooth="yes"/>
    </contour>
  </outline>
</glyph>
<glyph name="_part.T" format="2">
  <advance width="607"/>
  <outline>
    <contour>
      <point x="376" y="570" type="line"/>
      <point x="285" y="570" type="line"/>
      <point x="233" y="0" type="line"/>
      <point x="323" y="0" type="line"/>
    </contour>
  </outline>
</glyph>
<glyph name="_part.angleleft.n" format="2">
  <advance width="708"/>
  <guideline x="-1061" y="0" angle="265"/>
  <guideline x="-1061" y="0" angle="265"/>
  <outline>
    <contour>
      <point x="420" y="0" type="line"/>
      <point x="510" y="0" type="line"/>
      <point x="536" y="312" type="line" smooth="yes"/>
      <point x="550" y="475"/>
      <point x="519" y="588"/>
      <point x="313" y="579" type="curve"/>
      <point x="304" y="498" type="line"/>
      <point x="448" y="506"/>
      <point x="455" y="429"/>
      <point x="444" y="296" type="curve" smooth="yes"/>
    </contour>
  </outline>
</glyph>
<glyph name="_part.desc" format="2">
  <advance width="498"/>
  <outline>
    <contour>
      <point x="424" y="37" type="curve" smooth="yes"/>
      <point x="445" y="231" type="line"/>
      <point x="355" y="231" type="line"/>
      <point x="334" y="39" type="line" smooth="yes"/>
      <point x="321" y="-83"/>
      <point x="294" y="-210"/>
      <point x="179" y="-210" type="curve" smooth="yes"/>
      <point x="126" y="-210"/>
      <point x="87" y="-181"/>
      <point x="87" y="-122" type="curve" smooth="yes"/>
      <point x="87" y="-107"/>
      <point x="89" y="-90"/>
      <point x="93" y="-72" type="curve"/>
      <point x="3" y="-62" type="line"/>
      <point x="-1" y="-80"/>
      <point x="-3" y="-107"/>
      <point x="-3" y="-122" type="curve" smooth="yes"/>
      <point x="-3" y="-219"/>
      <point x="72" y="-290"/>
      <point x="171" y="-290" type="curve" smooth="yes"/>
      <point x="356" y="-290"/>
      <point x="407" y="-128"/>
    </contour>
  </outline>
</glyph>
<glyph name="_part.j" format="2">
  <advance width="695"/>
  <guideline x="156" y="-62" angle="0"/>
  <outline>
    <contour>
      <point x="463" y="570" type="curve"/>
      <point x="369" y="570" type="line"/>
      <point x="350" y="489"/>
      <point x="339" y="397"/>
      <point x="339" y="314" type="curve" smooth="yes"/>
      <point x="339" y="231"/>
      <point x="351" y="108"/>
      <point x="351" y="62" type="curve" smooth="yes"/>
      <point x="351" y="-109"/>
      <point x="292" y="-210"/>
      <point x="196" y="-210" type="curve" smooth="yes"/>
      <point x="143" y="-210"/>
      <point x="104" y="-181"/>
      <point x="104" y="-122" type="curve" smooth="yes"/>
      <point x="104" y="-107"/>
      <point x="106" y="-90"/>
      <point x="110" y="-72" type="curve"/>
      <point x="20" y="-62" type="line"/>
      <point x="16" y="-80"/>
      <point x="14" y="-107"/>
      <point x="14" y="-122" type="curve" smooth="yes"/>
      <point x="14" y="-219"/>
      <point x="89" y="-290"/>
      <point x="192" y="-290" type="curve" smooth="yes"/>
      <point x="373" y="-290"/>
      <point x="441" y="-134"/>
      <point x="441" y="48" type="curve" smooth="yes"/>
      <point x="441" y="101"/>
      <point x="429" y="227"/>
      <point x="429" y="303" type="curve" smooth="yes"/>
      <point x="429" y="392"/>
      <point x="440" y="483"/>
    </contour>
  </outline>
</glyph>
<glyph name="_part.l" format="2">
  <advance width="374"/>
  <guideline x="-293" y="0" angle="84.9462"/>
  <outline>
    <contour>
      <point x="199" y="271" type="line"/>
      <point x="239" y="720" type="line"/>
      <point x="151" y="720" type="line"/>
      <point x="112" y="271" type="line"/>
    </contour>
  </outline>
</glyph>
<glyph name="_part.spirale" format="2">
  <advance width="995"/>
  <outline>
    <contour>
      <point x="531" y="570" type="line"/>
      <point x="440" y="570" type="line"/>
      <point x="420" y="328" type="line" smooth="yes"/>
      <point x="411" y="218"/>
      <point x="403" y="72"/>
      <point x="306" y="71" type="curve"/>
      <point x="298" y="-10" type="line"/>
      <point x="466" y="-10"/>
      <point x="496" y="159"/>
      <point x="509" y="309" type="curve" smooth="yes"/>
    </contour>
    <component base="_part.termleft" xOffset="36" yOffset="-5"/>
  </outline>
</glyph>
<glyph name="_part.termleft" format="2">
  <advance width="422"/>
  <outline>
    <contour>
      <point x="262" y="-5" type="curve"/>
      <point x="270" y="76" type="line"/>
      <point x="246" y="76"/>
      <point x="224" y="86"/>
      <point x="208" y="99" type="curve"/>
      <point x="166" y="20" type="line"/>
      <point x="189" y="5"/>
      <point x="228" y="-5"/>
    </contour>
  </outline>
</glyph>
<glyph name="_part.utop" format="2">
  <advance width="783"/>
  <outline>
    <contour>
      <point x="535" y="356" type="curve"/>
      <point x="504" y="435" type="line"/>
      <point x="473" y="389"/>
      <point x="412" y="356"/>
      <point x="353" y="356" type="curve" smooth="yes"/>
      <point x="265" y="356"/>
      <point x="221" y="408"/>
      <point x="221" y="510" type="curve" smooth="yes"/>
      <point x="221" y="529"/>
      <point x="221" y="552"/>
      <point x="224" y="570" type="curve"/>
      <point x="135" y="570" type="line"/>
      <point x="132" y="555"/>
      <point x="129" y="527"/>
      <point x="129" y="507" type="curve" smooth="yes"/>
      <point x="129" y="366"/>
      <point x="215" y="276"/>
      <point x="352" y="276" type="curve" smooth="yes"/>
      <point x="419" y="276"/>
      <point x="489" y="307"/>
    </contour>
  </outline>
</glyph>
<glyph name="_rond" format="2">
  <advance width="740"/>
  <outline>
    <contour>
      <point x="350" y="70" type="curve" smooth="yes"/>
      <point x="266" y="70"/>
      <point x="212" y="140"/>
      <point x="212" y="256" type="curve" smooth="yes"/>
      <point x="212" y="398"/>
      <point x="289" y="499"/>
      <point x="390" y="499" type="curve" smooth="yes"/>
      <point x="474" y="499"/>
      <point x="528" y="429"/>
      <point x="528" y="314" type="curve" smooth="yes"/>
      <point x="528" y="171"/>
      <point x="451" y="70"/>
    </contour>
    <contour>
      <point x="390" y="580" type="curve" smooth="yes"/>
      <point x="225" y="580"/>
      <point x="120" y="452"/>
      <point x="120" y="252" type="curve" smooth="yes"/>
      <point x="120" y="95"/>
      <point x="212" y="-10"/>
      <point x="350" y="-10" type="curve" smooth="yes"/>
      <point x="515" y="-10"/>
      <point x="620" y="118"/>
      <point x="620" y="318" type="curve" smooth="yes"/>
      <point x="620" y="475"/>
      <point x="528" y="580"/>
    </contour>
  </outline>
</glyph>
<glyph name="aleph-elym.ss01" format="2">
  <advance width="1134"/>
  <note>
ALEPH
</note>
  <outline>
    <contour>
      <point x="806" y="0" type="line"/>
      <point x="814" y="82" type="line"/>
      <point x="253" y="82" type="line"/>
      <point x="231" y="140"/>
      <point x="217" y="215"/>
      <point x="217" y="274" type="curve" smooth="yes"/>
      <point x="217" y="409"/>
      <point x="282" y="499"/>
      <point x="385" y="499" type="curve" smooth="yes"/>
      <point x="490" y="499"/>
      <point x="545" y="432"/>
      <point x="535" y="315" type="curve" smooth="yes"/>
      <point x="528" y="216" type="line"/>
      <point x="615" y="216" type="line"/>
      <point x="623" y="317" type="line" smooth="yes"/>
      <point x="632" y="429"/>
      <point x="705" y="500"/>
      <point x="808" y="500" type="curve" smooth="yes"/>
      <point x="888" y="500"/>
      <point x="933" y="449"/>
      <point x="933" y="369" type="curve" smooth="yes"/>
      <point x="933" y="338"/>
      <point x="926" y="308"/>
      <point x="913" y="290" type="curve"/>
      <point x="994" y="242" type="line"/>
      <point x="1016" y="271"/>
      <point x="1029" y="313"/>
      <point x="1029" y="366" type="curve" smooth="yes"/>
      <point x="1029" y="492"/>
      <point x="945" y="580"/>
      <point x="813" y="580" type="curve" smooth="yes"/>
      <point x="712" y="580"/>
      <point x="621" y="533"/>
      <point x="585" y="461" type="curve"/>
      <point x="597" y="456" type="line"/>
      <point x="570" y="531"/>
      <point x="486" y="579"/>
      <point x="385" y="579" type="curve" smooth="yes"/>
      <point x="222" y="579"/>
      <point x="122" y="459"/>
      <point x="122" y="281" type="curve" smooth="yes"/>
      <point x="122" y="188"/>
      <point x="146" y="86"/>
      <point x="185" y="0" type="curve"/>
    </contour>
  </outline>
</glyph>
<glyph name="daleth-elym.ss01" format="2">
  <advance width="630"/>
  <note>
daleth
</note>
  <guideline x="-141" y="0" angle="85.3216"/>
  <outline>
    <contour>
      <point x="197" y="570" type="curve"/>
      <point x="102" y="570" type="line"/>
      <point x="97" y="545"/>
      <point x="95" y="517"/>
      <point x="95" y="490" type="curve" smooth="yes"/>
      <point x="95" y="378"/>
      <point x="190" y="337"/>
      <point x="259" y="315" type="curve" smooth="yes"/>
      <point x="341" y="287" type="line"/>
      <point x="384" y="345" type="line"/>
      <point x="295" y="379" type="line" smooth="yes"/>
      <point x="237" y="399"/>
      <point x="188" y="421"/>
      <point x="188" y="501" type="curve" smooth="yes"/>
      <point x="188" y="523"/>
      <point x="191" y="546"/>
    </contour>
    <contour>
      <point x="232" y="-207" type="curve" smooth="yes"/>
      <point x="185" y="-207"/>
      <point x="151" y="-198"/>
      <point x="119" y="-180" type="curve"/>
      <point x="74" y="-258" type="line"/>
      <point x="109" y="-278"/>
      <point x="163" y="-290"/>
      <point x="225" y="-290" type="curve" smooth="yes"/>
      <point x="379" y="-290"/>
      <point x="523" y="-210"/>
      <point x="523" y="-70" type="curve" smooth="yes"/>
      <point x="523" y="4"/>
      <point x="478" y="50"/>
      <point x="408" y="89" type="curve" smooth="yes"/>
      <point x="341" y="126" type="line" smooth="yes"/>
      <point x="314" y="141"/>
      <point x="298" y="162"/>
      <point x="298" y="184" type="curve" smooth="yes"/>
      <point x="298" y="212"/>
      <point x="311" y="235"/>
      <point x="340" y="262" type="curve" smooth="yes"/>
      <point x="415" y="328" type="line" smooth="yes"/>
      <point x="490" y="394"/>
      <point x="508" y="470"/>
      <point x="505" y="571" type="curve"/>
      <point x="412" y="571" type="line"/>
      <point x="412" y="557"/>
      <point x="413" y="544"/>
      <point x="413" y="531" type="curve" smooth="yes"/>
      <point x="413" y="466"/>
      <point x="398" y="422"/>
      <point x="345" y="374" type="curve" smooth="yes"/>
      <point x="272" y="309" type="line" smooth="yes"/>
      <point x="232" y="274"/>
      <point x="203" y="229"/>
      <point x="203" y="176" type="curve" smooth="yes"/>
      <point x="203" y="132"/>
      <point x="225" y="93"/>
      <point x="282" y="62" type="curve" smooth="yes"/>
      <point x="358" y="20" type="line" smooth="yes"/>
      <point x="404" y="-6"/>
      <point x="426" y="-36"/>
      <point x="426" y="-77" type="curve" smooth="yes"/>
      <point x="426" y="-155"/>
      <point x="332" y="-207"/>
    </contour>
  </outline>
</glyph>
<glyph name="gimel-elym.ss01" format="2">
  <advance width="745"/>
  <note>
Gimmel
</note>
  <outline>
    <contour>
      <point x="436" y="283" type="curve" smooth="yes"/>
      <point x="436" y="153"/>
      <point x="499" y="37"/>
      <point x="593" y="-8" type="curve"/>
      <point x="631" y="73" type="line"/>
      <point x="569" y="105"/>
      <point x="528" y="191"/>
      <point x="528" y="289" type="curve" smooth="yes"/>
      <point x="528" y="384"/>
      <point x="582" y="465"/>
      <point x="662" y="493" type="curve"/>
      <point x="636" y="578" type="line"/>
      <point x="516" y="527"/>
      <point x="436" y="409"/>
    </contour>
    <contour>
      <point x="195" y="0" type="line"/>
      <point x="194" y="10"/>
      <point x="194" y="18"/>
      <point x="194" y="28" type="curve" smooth="yes"/>
      <point x="194" y="193"/>
      <point x="237" y="359"/>
      <point x="344" y="359" type="curve" smooth="yes"/>
      <point x="391" y="359"/>
      <point x="448" y="329"/>
      <point x="468" y="292" type="curve"/>
      <point x="528" y="351" type="line"/>
      <point x="487" y="406"/>
      <point x="406" y="445"/>
      <point x="337" y="445" type="curve" smooth="yes"/>
      <point x="180" y="445"/>
      <point x="102" y="241"/>
      <point x="102" y="27" type="curve" smooth="yes"/>
      <point x="102" y="17"/>
      <point x="102" y="9"/>
      <point x="103" y="0" type="curve"/>
    </contour>
  </outline>
</glyph>
<glyph name="he-elym.ss01" format="2">
  <advance width="885"/>
  <note>
he
</note>
  <guideline x="-384" y="0" angle="264.8056"/>
  <guideline x="-384" y="0" angle="264.8056"/>
  <outline>
    <contour>
      <point x="308" y="64" type="curve"/>
      <point x="262" y="1" type="line"/>
      <point x="313" y="-19"/>
      <point x="403" y="-34"/>
      <point x="476" y="-36" type="curve"/>
      <point x="492" y="36" type="line"/>
      <point x="427" y="38"/>
      <point x="368" y="47"/>
    </contour>
    <contour>
      <point x="336" y="228" type="curve" smooth="yes"/>
      <point x="658" y="228" type="line"/>
      <point x="671" y="305" type="line"/>
      <point x="345" y="305" type="line" smooth="yes"/>
      <point x="257" y="305"/>
      <point x="199" y="349"/>
      <point x="199" y="414" type="curve" smooth="yes"/>
      <point x="199" y="462"/>
      <point x="226" y="504"/>
      <point x="282" y="504" type="curve" smooth="yes"/>
      <point x="346" y="504"/>
      <point x="382" y="443"/>
      <point x="382" y="368" type="curve" smooth="yes"/>
      <point x="382" y="249"/>
      <point x="335" y="116"/>
      <point x="262" y="1" type="curve"/>
      <point x="357" y="1" type="line"/>
      <point x="418" y="95"/>
      <point x="468" y="259"/>
      <point x="468" y="364" type="curve" smooth="yes"/>
      <point x="468" y="486"/>
      <point x="410" y="580"/>
      <point x="283" y="580" type="curve" smooth="yes"/>
      <point x="176" y="580"/>
      <point x="113" y="496"/>
      <point x="113" y="412" type="curve" smooth="yes"/>
      <point x="113" y="302"/>
      <point x="217" y="228"/>
    </contour>
    <component base="_part.T" xOffset="374"/>
  </outline>
</glyph>
<glyph name="he-elym.ss02" format="2">
  <advance width="824"/>
  <note>
he
</note>
  <guideline x="-227" y="0" angle="264.8056"/>
  <guideline x="-227" y="0" angle="264.8056"/>
  <outline>
    <contour>
      <point x="301" y="272" type="curve"/>
      <point x="382" y="248" type="line"/>
      <point x="412" y="286"/>
      <point x="439" y="343"/>
      <point x="439" y="404" type="curve" smooth="yes"/>
      <point x="439" y="508"/>
      <point x="365" y="579"/>
      <point x="266" y="579" type="curve" smooth="yes"/>
      <point x="167" y="579"/>
      <point x="93" y="504"/>
      <point x="93" y="413" type="curve" smooth="yes"/>
      <point x="93" y="302"/>
      <point x="188" y="227"/>
      <point x="333" y="227" type="curve" smooth="yes"/>
      <point x="584" y="227" type="line"/>
      <point x="591" y="306" type="line"/>
      <point x="326" y="306" type="line" smooth="yes"/>
      <point x="241" y="306"/>
      <point x="182" y="351"/>
      <point x="182" y="418" type="curve" smooth="yes"/>
      <point x="182" y="465"/>
      <point x="214" y="501"/>
      <point x="263" y="501" type="curve" smooth="yes"/>
      <point x="323" y="501"/>
      <point x="353" y="448"/>
      <point x="353" y="397" type="curve" smooth="yes"/>
      <point x="353" y="352"/>
      <point x="337" y="307"/>
    </contour>
    <component base="_part.T" xOffset="313"/>
  </outline>
</glyph>
<glyph name="lamedh-elym.ss01" format="2">
  <advance width="511"/>
  <note>
LAMEDH
</note>
  <outline>
    <contour>
      <point x="357" y="687" type="curve"/>
      <point x="285" y="740" type="line"/>
      <point x="245" y="696"/>
      <point x="233" y="627"/>
      <point x="233" y="560" type="curve" smooth="yes"/>
      <point x="233" y="532"/>
      <point x="235" y="505"/>
      <point x="238" y="479" type="curve" smooth="yes"/>
      <point x="257" y="300" type="line" smooth="yes"/>
      <point x="260" y="266"/>
      <point x="263" y="239"/>
      <point x="263" y="209" type="curve" smooth="yes"/>
      <point x="263" y="134"/>
      <point x="243" y="71"/>
      <point x="160" y="71" type="curve"/>
      <point x="151" y="-10" type="line"/>
      <point x="284" y="-10"/>
      <point x="352" y="64"/>
      <point x="352" y="191" type="curve" smooth="yes"/>
      <point x="352" y="225"/>
      <point x="348" y="272"/>
      <point x="343" y="318" type="curve" smooth="yes"/>
      <point x="323" y="492" type="line" smooth="yes"/>
      <point x="321" y="514"/>
      <point x="320" y="537"/>
      <point x="320" y="560" type="curve" smooth="yes"/>
      <point x="320" y="609"/>
      <point x="328" y="658"/>
    </contour>
    <component base="_part.termleft" xOffset="-110" yOffset="-5"/>
  </outline>
</glyph>
<glyph name="mem-elym.ss01" format="2">
  <advance width="843"/>
  <note>
mem
</note>
  <outline>
    <contour>
      <point x="312" y="333" type="line"/>
      <point x="312" y="250" type="line"/>
      <point x="506" y="250" type="line"/>
      <point x="506" y="333" type="line"/>
    </contour>
    <contour>
      <point x="83" y="73" type="curve"/>
      <point x="75" y="-10" type="line"/>
      <point x="262" y="-10"/>
      <point x="359" y="148"/>
      <point x="359" y="295" type="curve" smooth="yes"/>
      <point x="359" y="419"/>
      <point x="282" y="576"/>
      <point x="103" y="580" type="curve"/>
      <point x="97" y="500" type="line"/>
      <point x="215" y="505"/>
      <point x="274" y="391"/>
      <point x="274" y="299" type="curve" smooth="yes"/>
      <point x="274" y="188"/>
      <point x="208" y="67"/>
    </contour>
    <contour>
      <point x="732" y="73" type="line"/>
      <point x="607" y="67"/>
      <point x="541" y="188"/>
      <point x="541" y="299" type="curve" smooth="yes"/>
      <point x="541" y="391"/>
      <point x="600" y="505"/>
      <point x="718" y="500" type="curve"/>
      <point x="712" y="580" type="line"/>
      <point x="533" y="576"/>
      <point x="456" y="419"/>
      <point x="456" y="295" type="curve" smooth="yes"/>
      <point x="456" y="148"/>
      <point x="553" y="-10"/>
      <point x="740" y="-10" type="curve"/>
    </contour>
  </outline>
</glyph>
<glyph name="nun-elym.ss01" format="2">
  <advance width="540"/>
  <note>
NUN
</note>
  <outline>
    <contour>
      <point x="170" y="570" type="line"/>
      <point x="163" y="490" type="line"/>
      <point x="446" y="490" type="line"/>
      <point x="453" y="570" type="line"/>
    </contour>
    <component base="_part.J" xOffset="-299"/>
  </outline>
</glyph>
<glyph name="pe-elym.ss01" format="2">
  <advance width="696"/>
  <guideline x="-132" y="0" angle="84.9462"/>
  <outline>
    <contour>
      <point x="86" y="-122" type="curve" smooth="yes"/>
      <point x="86" y="-219"/>
      <point x="161" y="-290"/>
      <point x="260" y="-290" type="curve" smooth="yes"/>
      <point x="445" y="-290"/>
      <point x="497" y="-128"/>
      <point x="513" y="37" type="curve" smooth="yes"/>
      <point x="559" y="494" type="line"/>
      <point x="504" y="548"/>
      <point x="426" y="579"/>
      <point x="340" y="579" type="curve" smooth="yes"/>
      <point x="221" y="579"/>
      <point x="145" y="498"/>
      <point x="132" y="413" type="curve"/>
      <point x="224" y="394" type="line"/>
      <point x="230" y="451"/>
      <point x="281" y="499"/>
      <point x="340" y="499" type="curve" smooth="yes"/>
      <point x="390" y="499"/>
      <point x="438" y="481"/>
      <point x="470" y="449" type="curve"/>
      <point x="423" y="39" type="line" smooth="yes"/>
      <point x="410" y="-83"/>
      <point x="383" y="-210"/>
      <point x="268" y="-210" type="curve" smooth="yes"/>
      <point x="215" y="-210"/>
      <point x="176" y="-181"/>
      <point x="176" y="-122" type="curve" smooth="yes"/>
      <point x="176" y="-107"/>
      <point x="178" y="-90"/>
      <point x="182" y="-72" type="curve"/>
      <point x="92" y="-62" type="line"/>
      <point x="88" y="-80"/>
      <point x="86" y="-107"/>
    </contour>
  </outline>
</glyph>
<glyph name="sadhe-elym.ss01" format="2">
  <advance width="840"/>
  <note>
SADHE
</note>
  <guideline x="38" y="-62" angle="0"/>
  <outline>
    <contour>
      <point x="578" y="339" type="curve" smooth="yes"/>
      <point x="640" y="339"/>
      <point x="677" y="272"/>
      <point x="672" y="172" type="curve"/>
      <point x="764" y="169" type="line"/>
      <point x="771" y="318"/>
      <point x="696" y="418"/>
      <point x="578" y="418" type="curve" smooth="yes"/>
      <point x="458" y="418"/>
      <point x="382" y="318"/>
      <point x="388" y="169" type="curve"/>
      <point x="484" y="172" type="line"/>
      <point x="478" y="272"/>
      <point x="516" y="339"/>
    </contour>
    <contour>
      <point x="298" y="252" type="line" smooth="yes"/>
      <point x="285" y="384"/>
      <point x="308" y="497"/>
      <point x="427" y="497" type="curve" smooth="yes"/>
      <point x="496" y="497"/>
      <point x="538" y="446"/>
      <point x="539" y="386" type="curve"/>
      <point x="624" y="386" type="line"/>
      <point x="623" y="496"/>
      <point x="547" y="580"/>
      <point x="423" y="580" type="curve" smooth="yes"/>
      <point x="253" y="580"/>
      <point x="194" y="443"/>
      <point x="207" y="270" type="curve" smooth="yes"/>
      <point x="217" y="141" type="line" smooth="yes"/>
      <point x="220" y="106"/>
      <point x="222" y="76"/>
      <point x="222" y="54" type="curve" smooth="yes"/>
      <point x="222" y="-109"/>
      <point x="165" y="-210"/>
      <point x="71" y="-210" type="curve" smooth="yes"/>
      <point x="11" y="-210"/>
      <point x="-25" y="-179"/>
      <point x="-25" y="-122" type="curve" smooth="yes"/>
      <point x="-25" y="-110"/>
      <point x="-23" y="-92"/>
      <point x="-19" y="-72" type="curve"/>
      <point x="-114" y="-62" type="line"/>
      <point x="-118" y="-83"/>
      <point x="-120" y="-109"/>
      <point x="-120" y="-127" type="curve" smooth="yes"/>
      <point x="-120" y="-221"/>
      <point x="-40" y="-290"/>
      <point x="65" y="-290" type="curve" smooth="yes"/>
      <point x="246" y="-290"/>
      <point x="314" y="-134"/>
      <point x="314" y="38" type="curve" smooth="yes"/>
      <point x="314" y="70"/>
      <point x="312" y="107"/>
      <point x="308" y="147" type="curve" smooth="yes"/>
    </contour>
  </outline>
</glyph>
<glyph name="samekh-elym.ss01" format="2">
  <advance width="1038"/>
  <note>
SAMEKH
</note>
  <guideline x="806" y="0" angle="264.8056"/>
  <outline>
    <contour>
      <point x="648" y="70" type="curve" smooth="yes"/>
      <point x="564" y="70"/>
      <point x="510" y="140"/>
      <point x="510" y="256" type="curve" smooth="yes"/>
      <point x="510" y="398"/>
      <point x="587" y="499"/>
      <point x="688" y="499" type="curve" smooth="yes"/>
      <point x="772" y="499"/>
      <point x="826" y="429"/>
      <point x="826" y="314" type="curve" smooth="yes"/>
      <point x="826" y="171"/>
      <point x="749" y="70"/>
    </contour>
    <contour>
      <point x="688" y="580" type="curve" smooth="yes"/>
      <point x="523" y="580"/>
      <point x="418" y="452"/>
      <point x="418" y="252" type="curve" smooth="yes"/>
      <point x="418" y="95"/>
      <point x="510" y="-10"/>
      <point x="648" y="-10" type="curve" smooth="yes"/>
      <point x="813" y="-10"/>
      <point x="918" y="118"/>
      <point x="918" y="318" type="curve" smooth="yes"/>
      <point x="918" y="475"/>
      <point x="826" y="580"/>
    </contour>
    <contour>
      <point x="306" y="340" type="line"/>
      <point x="306" y="260" type="line"/>
      <point x="448" y="260" type="line"/>
      <point x="448" y="340" type="line"/>
    </contour>
    <contour>
      <point x="98" y="-290" type="line"/>
      <point x="270" y="-290"/>
      <point x="295" y="-136"/>
      <point x="309" y="29" type="curve" smooth="yes"/>
      <point x="354" y="570" type="line"/>
      <point x="264" y="570" type="line"/>
      <point x="220" y="48" type="line" smooth="yes"/>
      <point x="211" y="-62"/>
      <point x="203" y="-208"/>
      <point x="106" y="-209" type="curve"/>
    </contour>
    <component base="_part.termleft" xOffset="-164" yOffset="-285"/>
  </outline>
</glyph>
<glyph name="shin-elym.ss01" format="2">
  <advance width="1142"/>
  <note>
shin
</note>
  <guideline x="493" y="0" angle="66.2277"/>
  <outline>
    <contour>
      <point x="788" y="542" type="line"/>
      <point x="702" y="542" type="line"/>
      <point x="472" y="0" type="line"/>
      <point x="564" y="-10" type="line"/>
    </contour>
    <contour>
      <point x="752" y="498" type="line"/>
      <point x="760" y="579" type="line"/>
      <point x="300" y="570" type="line"/>
      <point x="292" y="490" type="line"/>
    </contour>
    <component base="_part.angleleft.n" xOffset="447"/>
    <component base="_part.spirale" xOffset="-146"/>
  </outline>
</glyph>
<glyph name="taw-elym.ss01" format="2">
  <advance width="924"/>
  <note>
TAW
</note>
  <guideline x="500" y="0" angle="84.9462"/>
  <outline>
    <contour>
      <point x="96" y="163" type="curve" smooth="yes"/>
      <point x="96" y="66"/>
      <point x="178" y="-10"/>
      <point x="278" y="-10" type="curve" smooth="yes"/>
      <point x="410" y="-10"/>
      <point x="483" y="110"/>
      <point x="483" y="257" type="curve" smooth="yes"/>
      <point x="483" y="264"/>
      <point x="483" y="273"/>
      <point x="483" y="283" type="curve"/>
      <point x="712" y="283" type="line"/>
      <point x="705" y="364" type="line"/>
      <point x="476" y="364" type="line"/>
      <point x="465" y="433"/>
      <point x="450" y="498"/>
      <point x="437" y="570" type="curve"/>
      <point x="349" y="570" type="line"/>
      <point x="363" y="498"/>
      <point x="376" y="433"/>
      <point x="384" y="364" type="curve"/>
      <point x="360" y="364" type="line" smooth="yes"/>
      <point x="210" y="364"/>
      <point x="96" y="305"/>
    </contour>
    <contour>
      <point x="187" y="167" type="curve" smooth="yes"/>
      <point x="187" y="240"/>
      <point x="248" y="283"/>
      <point x="349" y="283" type="curve" smooth="yes"/>
      <point x="416" y="283" type="line"/>
      <point x="388" y="342" type="line"/>
      <point x="391" y="319"/>
      <point x="392" y="280"/>
      <point x="392" y="258" type="curve" smooth="yes"/>
      <point x="392" y="159"/>
      <point x="360" y="70"/>
      <point x="278" y="70" type="curve" smooth="yes"/>
      <point x="215" y="70"/>
      <point x="187" y="117"/>
    </contour>
    <contour>
      <point x="260" y="571" type="line"/>
      <point x="253" y="491" type="line"/>
      <point x="536" y="491" type="line"/>
      <point x="543" y="571" type="line"/>
    </contour>
    <component base="_part.T" xOffset="413"/>
  </outline>
</glyph>
<glyph name="zayin-elym.ss01" format="2">
  <advance width="569"/>
  <note>
zayin
</note>
  <guideline x="-269" y="0" angle="264.8056"/>
  <guideline x="-269" y="0" angle="264.8056"/>
  <outline>
    <contour>
      <point x="439" y="570" type="line"/>
      <point x="348" y="570" type="line"/>
      <point x="324" y="296" type="line" smooth="yes"/>
      <point x="313" y="161"/>
      <point x="291" y="71"/>
      <point x="177" y="71" type="curve" smooth="yes"/>
      <point x="138" y="71"/>
      <point x="100" y="81"/>
      <point x="72" y="97" type="curve"/>
      <point x="36" y="16" type="line"/>
      <point x="67" y="1"/>
      <point x="126" y="-10"/>
      <point x="172" y="-10" type="curve" smooth="yes"/>
      <point x="355" y="-10"/>
      <point x="396" y="104"/>
      <point x="413" y="288" type="curve" smooth="yes"/>
    </contour>
  </outline>
</glyph>
<glyph name="zayin_yodh-elym.ss01" format="2">
  <advance width="741"/>
  <note>
LIGATURE ZAYIN-YODH
</note>
  <outline>
    <contour>
      <point x="97" y="570" type="line"/>
      <point x="124" y="339"/>
      <point x="230" y="206"/>
      <point x="393" y="206" type="curve" smooth="yes"/>
      <point x="556" y="206"/>
      <point x="662" y="339"/>
      <point x="689" y="570" type="curve"/>
      <point x="593" y="570" type="line"/>
      <point x="571" y="389"/>
      <point x="499" y="290"/>
      <point x="393" y="290" type="curve" smooth="yes"/>
      <point x="287" y="290"/>
      <point x="215" y="389"/>
      <point x="193" y="570" type="curve"/>
    </contour>
  </outline>
</glyph>
<glyph name="zayin_yodh-elym.ss02" format="2">
  <advance width="759"/>
  <note>
LIGATURE ZAYIN-YODH
</note>
  <outline>
    <contour>
      <point x="602" y="573" type="curve" smooth="yes"/>
      <point x="498" y="573"/>
      <point x="434" y="511"/>
      <point x="434" y="417" type="curve" smooth="yes"/>
      <point x="434" y="391"/>
      <point x="441" y="365"/>
      <point x="449" y="341" type="curve" smooth="yes"/>
      <point x="468" y="280" type="line" smooth="yes"/>
      <point x="481" y="238"/>
      <point x="485" y="206"/>
      <point x="485" y="168" type="curve" smooth="yes"/>
      <point x="485" y="132"/>
      <point x="474" y="74"/>
      <point x="436" y="74" type="curve" smooth="yes"/>
      <point x="413" y="74"/>
      <point x="394" y="96"/>
      <point x="381" y="118" type="curve" smooth="yes"/>
      <point x="322" y="215" type="line" smooth="yes"/>
      <point x="301" y="250"/>
      <point x="274" y="282"/>
      <point x="223" y="282" type="curve" smooth="yes"/>
      <point x="124" y="282"/>
      <point x="67" y="153"/>
      <point x="52" y="0" type="curve"/>
      <point x="144" y="0" type="line"/>
      <point x="145" y="77"/>
      <point x="174" y="197"/>
      <point x="220" y="197" type="curve" smooth="yes"/>
      <point x="235" y="197"/>
      <point x="244" y="186"/>
      <point x="252" y="173" type="curve" smooth="yes"/>
      <point x="309" y="79" type="line" smooth="yes"/>
      <point x="339" y="30"/>
      <point x="376" y="-10"/>
      <point x="431" y="-10" type="curve" smooth="yes"/>
      <point x="529" y="-10"/>
      <point x="573" y="77"/>
      <point x="573" y="168" type="curve" smooth="yes"/>
      <point x="573" y="215"/>
      <point x="562" y="263"/>
      <point x="551" y="300" type="curve" smooth="yes"/>
      <point x="530" y="368" type="line" smooth="yes"/>
      <point x="525" y="383"/>
      <point x="522" y="400"/>
      <point x="522" y="415" type="curve" smooth="yes"/>
      <point x="522" y="456"/>
      <point x="551" y="486"/>
      <point x="600" y="486" type="curve" smooth="yes"/>
      <point x="606" y="486"/>
      <point x="613" y="485"/>
      <point x="618" y="484" type="curve"/>
      <point x="629" y="570" type="line"/>
      <point x="621" y="572"/>
      <point x="610" y="573"/>
    </contour>
  </outline>
</glyph>
<glyph name="zayin_yodh-elym.ss03" format="2">
  <advance width="782"/>
  <note>
LIGATURE ZAYIN-YODH
</note>
  <outline>
    <contour>
      <point x="553" y="368" type="line" smooth="yes"/>
      <point x="532" y="435"/>
      <point x="563" y="486"/>
      <point x="624" y="486" type="curve" smooth="yes"/>
      <point x="630" y="486"/>
      <point x="636" y="486"/>
      <point x="642" y="485" type="curve"/>
      <point x="652" y="570" type="line"/>
      <point x="645" y="572"/>
      <point x="636" y="573"/>
      <point x="627" y="573" type="curve" smooth="yes"/>
      <point x="494" y="573"/>
      <point x="435" y="478"/>
      <point x="476" y="338" type="curve" smooth="yes"/>
      <point x="493" y="280" type="line" smooth="yes"/>
      <point x="501" y="251"/>
      <point x="505" y="219"/>
      <point x="505" y="191" type="curve" smooth="yes"/>
      <point x="505" y="113"/>
      <point x="457" y="73"/>
      <point x="361" y="73" type="curve" smooth="yes"/>
      <point x="304" y="73"/>
      <point x="231" y="75"/>
      <point x="157" y="85" type="curve"/>
      <point x="149" y="4" type="line"/>
      <point x="222" y="-4"/>
      <point x="296" y="-8"/>
      <point x="354" y="-8" type="curve" smooth="yes"/>
      <point x="507" y="-8"/>
      <point x="592" y="61"/>
      <point x="592" y="191" type="curve" smooth="yes"/>
      <point x="592" y="215"/>
      <point x="585" y="263"/>
      <point x="574" y="300" type="curve" smooth="yes"/>
    </contour>
    <contour>
      <point x="275" y="570" type="line"/>
      <point x="185" y="570" type="line"/>
      <point x="137" y="-151" type="line"/>
      <point x="228" y="-151" type="line"/>
      <point x="237" y="0" type="line"/>
    </contour>
  </outline>
</glyph>
